<svg width="48" height="52" viewBox="0 0 48 52" fill="none" xmlns="http://www.w3.org/2000/svg">
<g filter="url(#filter0_f_24_1280)">
<circle cx="24" cy="26" r="10" fill="#6BBBDB"/>
</g>
<g filter="url(#filter1_b_24_1280)">
<path d="M16.3805 14.0538C18.0084 8.97632 19.8006 6.12741 23.8927 2C29.0435 6.63765 30.4892 9.5031 31.6195 14.0538M16.3805 14.0538C15.7771 13.9627 15.2126 13.9016 14.6634 13.8386M16.3805 14.0538C22.5357 15.0777 24.1671 17.7251 24.1073 26.3229M31.6195 14.0538C37.1472 12.9915 40.6532 13.4824 46 15.13C45.1529 24.7815 38.5554 26.8841 24.1073 26.3229M31.6195 14.0538C25.136 15.725 24.6517 19.438 24.1073 26.3229M24.1073 26.3229C41.9077 26.5653 45.8618 29.4397 45.7854 36.009C41.0056 37.7281 36.9953 38.6671 33.7659 38.5919M24.1073 26.3229C8.20212 26.0096 4.99129 26.9888 2.42927 36.6547C5.70598 37.4686 10.508 38.727 14.6634 38.3767M24.1073 26.3229C12.616 26.5946 5.62025 25.8261 2 15.7758C6.54641 13.8259 9.58534 13.2554 14.6634 13.8386M24.1073 26.3229C16.5336 24.8045 14.5835 22.0913 14.6634 13.8386M24.1073 26.3229C31.8934 24.7861 34.212 22.023 33.7659 13.8386M24.1073 26.3229C23.9724 35.1104 19.7608 37.947 14.6634 38.3767M24.1073 26.3229C16.7713 27.3006 14.6675 29.8315 14.6634 38.3767M24.1073 26.3229C24.472 34.7969 27.8133 38.4534 33.7659 38.5919M24.1073 26.3229C32.0688 27.1457 33.642 30.4542 33.7659 38.5919M17.0244 38.1614C18.4466 43.6042 21.0595 46.0266 24.7512 50C28.991 45.8607 30.3428 43.1076 32.0488 38.3767" stroke="white" stroke-width="2"/>
</g>
<defs>
<filter id="filter0_f_24_1280" x="3.375" y="5.375" width="41.25" height="41.25" filterUnits="userSpaceOnUse" color-interpolation-filters="sRGB">
<feFlood flood-opacity="0" result="BackgroundImageFix"/>
<feBlend mode="normal" in="SourceGraphic" in2="BackgroundImageFix" result="shape"/>
<feGaussianBlur stdDeviation="5.3125" result="effect1_foregroundBlur_24_1280"/>
</filter>
<filter id="filter1_b_24_1280" x="-6.1665" y="-6.28711" width="60.1396" height="64.625" filterUnits="userSpaceOnUse" color-interpolation-filters="sRGB">
<feFlood flood-opacity="0" result="BackgroundImageFix"/>
<feGaussianBlur in="BackgroundImageFix" stdDeviation="3.45313"/>
<feComposite in2="SourceAlpha" operator="in" result="effect1_backgroundBlur_24_1280"/>
<feBlend mode="normal" in="SourceGraphic" in2="effect1_backgroundBlur_24_1280" result="shape"/>
</filter>
</defs>
</svg>
